<svg width="768" height="432" viewBox="0 0 768 432" fill="none" xmlns="http://www.w3.org/2000/svg">
<rect width="768" height="432" fill="#e5e5e5"/>
<path d="M472 128H296C291.757 128 287.687 129.686 284.686 132.686C281.686 135.687 280 139.757 280 144V288C280 292.243 281.686 296.313 284.686 299.314C287.687 302.314 291.757 304 296 304H360C361.679 304 363.316 303.472 364.678 302.49C366.04 301.508 367.059 300.123 367.59 298.53L382.42 254.05L419 239.43C420.005 239.024 420.918 238.42 421.684 237.654C422.45 236.888 423.054 235.975 423.46 234.97L438.08 198.42L482.56 183.59C484.147 183.054 485.526 182.033 486.502 180.671C487.478 179.309 488.002 177.675 488 176V144C488 139.757 486.314 135.687 483.314 132.686C480.313 129.686 476.243 128 472 128ZM368.41 245.47L354.23 288H296V260L348 208L378.42 238.42L373 240.57C371.926 241.005 370.959 241.669 370.166 242.515C369.374 243.361 368.774 244.369 368.41 245.47ZM472 170.23L429.47 184.41C428.367 184.778 427.356 185.381 426.51 186.179C425.664 186.977 425.002 187.95 424.57 189.03L409.85 225.85L394.58 232L359.31 196.73C356.31 193.732 352.242 192.047 348 192.047C343.758 192.047 339.69 193.732 336.69 196.73L296 237.37V144H472V170.23ZM484.68 203.23C483.651 202.488 482.461 202.002 481.208 201.811C479.954 201.619 478.673 201.729 477.47 202.13L453.67 210.07C452.567 210.437 451.558 211.039 450.712 211.835C449.866 212.631 449.203 213.602 448.77 214.68L434.46 250.45L398.69 264.76C397.612 265.193 396.641 265.856 395.845 266.702C395.049 267.548 394.447 268.557 394.08 269.66L386.14 293.46C385.737 294.663 385.626 295.945 385.816 297.199C386.007 298.454 386.493 299.645 387.234 300.675C387.976 301.705 388.951 302.543 390.081 303.121C391.21 303.699 392.461 304.001 393.73 304H472C476.243 304 480.313 302.314 483.314 299.314C486.314 296.313 488 292.243 488 288V209.73C488 208.463 487.699 207.213 487.122 206.085C486.545 204.957 485.708 203.981 484.68 203.24V203.23ZM472 288H404.83L408.08 278.25L443.59 264.05C444.595 263.644 445.508 263.04 446.274 262.274C447.04 261.508 447.644 260.595 448.05 259.59L462.25 224.08L472 220.83V288Z" fill="#5562EA"/>
</svg>
